<svg width="1335" height="130" viewBox="0 0 1335 130" fill="none" xmlns="http://www.w3.org/2000/svg">
<path d="M892.952 75.0047C896.42 75.2363 920.015 78.9365 931.581 81.7128C943.145 84.489 955.174 100.448 957.95 101.142C960.726 101.837 974.14 100.216 985.706 99.2921C997.27 98.366 1019.48 111.09 1019.48 111.09C1019.48 115.947 997.039 108.545 989.175 108.082C981.309 107.619 969.051 110.163 966.506 112.245C963.961 114.327 959.106 117.103 954.942 116.871C950.779 116.64 938.982 108.313 937.826 106.695C936.668 105.076 942.684 104.382 942.684 104.382C942.684 104.382 942.684 104.382 937.133 97.442C931.583 90.5024 919.323 87.2652 911.227 85.1835C903.13 83.0999 889.481 74.7732 892.952 75.0047Z" fill="#00336B"/>
<rect x="891.265" y="103.972" width="44.7541" height="25.8785" rx="12.9393" transform="rotate(-10.9708 891.265 103.972)" fill="#007AFF"/>
<circle cx="906.006" cy="113.67" r="2.58785" transform="rotate(-10.9708 906.006 113.67)" fill="white"/>
<circle cx="916.168" cy="111.7" r="2.58785" transform="rotate(-10.9708 916.168 111.7)" fill="white"/>
<circle cx="926.33" cy="109.73" r="2.58785" transform="rotate(-10.9708 926.33 109.73)" fill="white"/>
<g clip-path="url(#clip0_0_1)">
<rect x="344.847" y="6" width="23.9071" height="13.824" rx="6.912" transform="rotate(23.8156 344.847 6)" fill="#007AFF"/>
<circle cx="348.359" cy="14.747" r="1.3824" transform="rotate(23.8156 348.359 14.747)" fill="white"/>
<circle cx="353.417" cy="16.9798" r="1.3824" transform="rotate(23.8156 353.417 16.9798)" fill="white"/>
<circle cx="358.476" cy="19.2127" r="1.3824" transform="rotate(23.8156 358.476 19.2127)" fill="white"/>
</g>
<path d="M369.143 23.8487C365.15 21.852 354.921 27.0527 348.917 28.4679C348.935 28.4466 348.953 28.4335 348.973 28.4122C352.816 24.0109 350.734 20.6464 347.052 20.6464C345.317 20.6464 343.633 21.7521 342.321 22.9167C339.677 15.4622 335.781 3.04612 327.602 0.556363C316.557 -2.80481 293.265 10.1616 293.265 10.1616C293.265 10.1616 318.503 4.19602 320.999 11.4818C324 20.2468 326.881 28.1714 330.483 31.7734C325.8 36.4564 320.639 38.9773 325.442 40.1779C330.244 41.3786 335.314 42.0469 342.279 37.4834C351.695 38.4171 362.102 32.653 368.509 37.0264C379.867 44.7774 374.749 56.9871 374.749 56.9871C374.749 56.9871 381.353 48.463 380.993 41.6194C380.629 34.7758 374.426 26.4908 369.143 23.8487Z" fill="#00336B"/>
<g clip-path="url(#clip1_0_1)">
<rect x="99.9526" y="98.2588" width="34.4262" height="19.9066" rx="9.95328" transform="rotate(138.345 99.9526 98.2588)" fill="#007AFF"/>
<circle cx="86.3942" cy="97.6304" r="1.99066" transform="rotate(138.345 86.3942 97.6304)" fill="white"/>
<circle cx="80.4448" cy="102.923" r="1.99066" transform="rotate(138.345 80.4448 102.923)" fill="white"/>
<circle cx="74.4954" cy="108.215" r="1.99066" transform="rotate(138.345 74.4954 108.215)" fill="white"/>
</g>
<path d="M80.8727 74.3533C88.1729 71.6643 104.212 68.8791 103.349 68.0142C102.484 67.1493 82.0264 67.053 74.6299 71.9513C69.0928 75.6191 59.6284 86.6599 55.2196 91.9788C53.6511 82.0525 49.8103 66.1056 45.197 60.6963C38.3174 52.6275 0 44.3857 0 44.3857C1.72776 48.8044 27.6619 60.1381 35.0349 65.5159C41.0928 69.9366 42.2054 89.3744 43.369 97.1346C38.7027 98.8604 35.6874 100.549 38.17 102.153C42.5965 105.011 51.5321 106.577 57.0535 105.858C60.4815 105.41 70.8854 99.9021 69.9242 97.0245C69.5311 95.8451 67.3827 94.8643 64.4697 94.2805C68.3832 88.7277 75.2471 76.425 80.8727 74.3533Z" fill="#00336B"/>
<g clip-path="url(#clip2_0_1)">
<rect x="1286.93" y="28.1367" width="43.7944" height="19.9066" rx="9.95328" transform="rotate(-35.1175 1286.93 28.1367)" fill="#007AFF"/>
<circle cx="1304.05" cy="28.2623" r="1.99066" transform="rotate(-35.1175 1304.05 28.2623)" fill="white"/>
<circle cx="1310.56" cy="23.6818" r="1.99066" transform="rotate(-35.1175 1310.56 23.6818)" fill="white"/>
<circle cx="1317.08" cy="19.1013" r="1.99066" transform="rotate(-35.1175 1317.08 19.1013)" fill="white"/>
</g>
<path d="M1304.33 52.9881C1302.42 49.5129 1293.55 40.8584 1284.36 32.3533C1288.35 28.5439 1294.11 29.7705 1292.5 27.2113C1289.73 22.8299 1281.71 22.2265 1275.93 24.6639C1271.33 20.5105 1267.19 16.8368 1264.5 14.4526C1255.13 6.12038 1249.01 5.49728 1231.96 5.49728C1214.9 5.49728 1205.26 1 1205.26 1C1208.39 10.4604 1227.4 11.9798 1238.98 13.1513C1248.58 14.1223 1258.65 23.4491 1267.13 32.2746C1263.2 35.4078 1259.62 35.9287 1257.47 37.1061C1253.44 39.3193 1258.2 41.5385 1265.62 41.4088C1268.5 41.3577 1271.47 40.597 1274.16 39.5277C1283.17 47.4844 1298.82 53.281 1303.57 71.4785C1308.58 90.6687 1318.66 102.985 1318.66 102.985C1313.07 96.0839 1307.74 59.2033 1304.33 52.9881Z" fill="#00336B"/>
<defs>
<clipPath id="clip0_0_1">
<rect x="344.847" y="6" width="23.9071" height="13.824" rx="6.912" transform="rotate(23.8156 344.847 6)" fill="white"/>
</clipPath>
<clipPath id="clip1_0_1">
<rect x="99.9526" y="98.2588" width="34.4262" height="19.9066" rx="9.95328" transform="rotate(138.345 99.9526 98.2588)" fill="white"/>
</clipPath>
<clipPath id="clip2_0_1">
<rect x="1286.93" y="28.1367" width="43.7944" height="19.9066" rx="9.95328" transform="rotate(-35.1175 1286.93 28.1367)" fill="white"/>
</clipPath>
</defs>
</svg>
