<svg width="240" height="52" viewBox="0 0 240 52" fill="none" xmlns="http://www.w3.org/2000/svg">
<path d="M197.303 38.0214C198.459 38.0985 206.323 39.3318 210.178 40.2571C214.034 41.1824 218.043 46.502 218.968 46.7331C219.893 46.9641 224.365 46.425 228.22 46.1159C232.075 45.8078 239.476 50.0481 239.476 50.0481C239.476 51.6675 231.997 49.1998 229.376 49.0458C226.754 48.8917 222.668 49.74 221.82 50.4332C220.972 51.1274 219.353 52.0527 217.965 51.9756C216.577 51.8986 212.645 49.1228 212.259 48.5836C211.873 48.0435 213.879 47.8124 213.879 47.8124C213.879 47.8124 213.879 47.8124 212.028 45.4997C210.178 43.187 206.091 42.1077 203.392 41.4135C200.696 40.7202 196.146 37.9444 197.303 38.0214Z" fill="#00336B"/>
<path d="M0.184547 0.00157207C1.3409 0.0785971 9.20524 1.31197 13.0604 2.23725C16.9155 3.16252 20.9247 8.48212 21.85 8.71319C22.7753 8.94427 27.2466 8.4051 31.1018 8.09602C34.9569 7.78792 42.3582 12.0282 42.3582 12.0282C42.3582 13.6477 34.8789 11.18 32.2581 11.0259C29.6364 10.8719 25.5501 11.7201 24.7019 12.4133C23.8536 13.1075 22.2351 14.0328 20.8467 13.9558C19.4593 13.8788 15.5271 11.1029 15.141 10.5638C14.7549 10.0236 16.7605 9.79251 16.7605 9.79251C16.7605 9.79251 16.7605 9.79253 14.91 7.47983C13.0594 5.16713 8.97319 4.0878 6.27439 3.3936C3.57754 2.70038 -0.971803 -0.0754529 0.184547 0.00157207Z" fill="#00336B"/>
</svg>
